<svg xmlns="http://www.w3.org/2000/svg" viewBox="0 0 100 100">
  <rect width="100" height="100" rx="20" fill="#2563eb"/>
  <path d="M50 25c-8.3 0-15 6.7-15 15 0 1.5.2 2.9.6 4.2-4.4 1.4-7.6 5.5-7.6 10.3 0 6.1 4.9 11 11 11h22c6.1 0 11-4.9 11-11 0-4.8-3.2-8.9-7.6-10.3.4-1.3.6-2.7.6-4.2 0-8.3-6.7-15-15-15z" fill="none" stroke="white" stroke-width="6" stroke-linecap="round" stroke-linejoin="round"/>
  <path d="M35 65.5v4c0 3 2.5 5.5 5.5 5.5h19c3 0 5.5-2.5 5.5-5.5v-4" fill="none" stroke="white" stroke-width="6" stroke-linecap="round" stroke-linejoin="round"/>
</svg>
